<mxfile host="app.diagrams.net" modified="2023-05-15T03:02:21.588Z" agent="Mozilla/5.0 (Windows NT 10.0; Win64; x64) AppleWebKit/537.36 (KHTML, like Gecko) Chrome/109.0.0.0 Safari/537.36" version="21.3.0" etag="s7AfmuCk20ybtgVIBhxT" type="github">
  <diagram name="第 1 页" id="luTOn9i_8a3EaWGDm414">
    <mxGraphModel>
      <root>
        <mxCell id="0" />
        <mxCell id="1" parent="0" />
      </root>
    </mxGraphModel>
  </diagram>
</mxfile>
